<?xml version="1.0" encoding="UTF-8"?>
<svg id="mindmap" class="markmap mindmap" xmlns="http://www.w3.org/2000/svg" version="1.1" width="800" height="600"><style style="">.markmap {
  --markmap-max-width: 9999px;
  --markmap-a-color: #0097e6;
  --markmap-a-hover-color: #00a8ff;
  --markmap-code-bg: #f0f0f0;
  --markmap-code-color: #555;
  --markmap-highlight-bg: #ffeaa7;
  --markmap-table-border: 1px solid currentColor;
  --markmap-font: 300 16px/20px sans-serif;
  --markmap-circle-open-bg: #fff;
  --markmap-text-color: #333;
  --markmap-highlight-node-bg: #ff02;

  font: var(--markmap-font);
  color: var(--markmap-text-color);
}

  .markmap-link {
    fill: none;
  }

  .markmap-node &gt; circle {
      cursor: pointer;
    }

  .markmap-foreign {
    display: inline-block;
  }

  .markmap-foreign p {
      margin: 0;
    }

  .markmap-foreign a {
      color: var(--markmap-a-color);
    }

  .markmap-foreign a:hover {
        color: var(--markmap-a-hover-color);
      }

  .markmap-foreign code {
      padding: 0.25em;
      font-size: calc(1em - 2px);
      color: var(--markmap-code-color);
      background-color: var(--markmap-code-bg);
      border-radius: 2px;
    }

  .markmap-foreign pre {
      margin: 0;
    }

  .markmap-foreign pre &gt; code {
        display: block;
      }

  .markmap-foreign del {
      text-decoration: line-through;
    }

  .markmap-foreign em {
      font-style: italic;
    }

  .markmap-foreign strong {
      font-weight: bold;
    }

  .markmap-foreign mark {
      background: var(--markmap-highlight-bg);
    }

  .markmap-foreign table,
    .markmap-foreign th,
    .markmap-foreign td {
      border-collapse: collapse;
      border: var(--markmap-table-border);
    }

  .markmap-foreign img {
      display: inline-block;
    }

  .markmap-foreign svg {
      fill: currentColor;
    }

  .markmap-foreign &gt; div {
      width: var(--markmap-max-width);
      text-align: left;
    }

  .markmap-foreign &gt; div &gt; div {
        display: inline-block;
      }

  .markmap-highlight rect {
    fill: var(--markmap-highlight-node-bg);
  }

.markmap-dark .markmap {
  --markmap-code-bg: #1a1b26;
  --markmap-code-color: #ddd;
  --markmap-circle-open-bg: #444;
  --markmap-text-color: #eee;
}
</style><g transform="translate(20.000000000000057,289.49423480083857) scale(0.7966457023060796)" style=""><path class="markmap-link" data-depth="3" data-path="1.4.5" d="M604,-91.25C644,-91.25,644,-117.812,684,-117.812" stroke-width="1.375" stroke="rgb(148, 103, 189)" style=""></path><path class="markmap-link" data-depth="3" data-path="1.4.6" d="M604,-91.25C644,-91.25,644,-91.437,684,-91.437" stroke-width="1.375" stroke="rgb(140, 86, 75)" style=""></path><path class="markmap-link" data-depth="3" data-path="1.4.7" d="M604,-91.25C644,-91.25,644,-65.062,684,-65.062" stroke-width="1.375" stroke="rgb(227, 119, 194)" style=""></path><path class="markmap-link" data-depth="3" data-path="1.8.9" d="M474,-20.312C514,-20.312,514,-33.687,554,-33.687" stroke-width="1.375" stroke="rgb(188, 189, 34)" style=""></path><path class="markmap-link" data-depth="3" data-path="1.8.10" d="M474,-20.312C514,-20.312,514,-7.312,554,-7.312" stroke-width="1.375" stroke="rgb(23, 190, 207)" style=""></path><path class="markmap-link" data-depth="3" data-path="1.11.12" d="M549,24.25C589,24.25,589,24.063,629,24.063" stroke-width="1.375" stroke="rgb(255, 127, 14)" style=""></path><path class="markmap-link" data-depth="4" data-path="1.13.15.16" d="M731,82.188C771,82.188,771,82.094,811,82.094" stroke-width="1.1875" stroke="rgb(140, 86, 75)" style=""></path><path class="markmap-link" data-depth="3" data-path="1.13.14" d="M424,82.375C464,82.375,464,55.813,504,55.813" stroke-width="1.375" stroke="rgb(214, 39, 40)" style=""></path><path class="markmap-link" data-depth="3" data-path="1.13.15" d="M424,82.375C464,82.375,464,82.188,504,82.188" stroke-width="1.375" stroke="rgb(148, 103, 189)" style=""></path><path class="markmap-link" data-depth="3" data-path="1.13.17" d="M424,82.375C464,82.375,464,108.563,504,108.563" stroke-width="1.375" stroke="rgb(227, 119, 194)" style=""></path><path class="markmap-link" data-depth="3" data-path="1.18.19" d="M434,166.5C474,166.5,474,139.938,514,139.938" stroke-width="1.375" stroke="rgb(188, 189, 34)" style=""></path><path class="markmap-link" data-depth="3" data-path="1.18.20" d="M434,166.5C474,166.5,474,166.313,514,166.313" stroke-width="1.375" stroke="rgb(23, 190, 207)" style=""></path><path class="markmap-link" data-depth="3" data-path="1.18.21" d="M434,166.5C474,166.5,474,192.688,514,192.688" stroke-width="1.375" stroke="rgb(31, 119, 180)" style=""></path><path class="markmap-link" data-depth="2" data-path="1.2" d="M240,11.25C280,11.25,280,-144.75,320,-144.75" stroke-width="1.75" stroke="rgb(255, 127, 14)" style=""></path><path class="markmap-link" data-depth="2" data-path="1.3" d="M240,11.25C280,11.25,280,-118,320,-118" stroke-width="1.75" stroke="rgb(44, 160, 44)" style=""></path><path class="markmap-link" data-depth="2" data-path="1.4" d="M240,11.25C280,11.25,280,-91.25,320,-91.25" stroke-width="1.75" stroke="rgb(214, 39, 40)" style=""></path><path class="markmap-link" data-depth="2" data-path="1.8" d="M240,11.25C280,11.25,280,-20.312,320,-20.312" stroke-width="1.75" stroke="rgb(127, 127, 127)" style=""></path><path class="markmap-link" data-depth="2" data-path="1.11" d="M240,11.25C280,11.25,280,24.25,320,24.25" stroke-width="1.75" stroke="rgb(31, 119, 180)" style=""></path><path class="markmap-link" data-depth="2" data-path="1.13" d="M240,11.25C280,11.25,280,82.375,320,82.375" stroke-width="1.75" stroke="rgb(44, 160, 44)" style=""></path><path class="markmap-link" data-depth="2" data-path="1.18" d="M240,11.25C280,11.25,280,166.5,320,166.5" stroke-width="1.75" stroke="rgb(127, 127, 127)" style=""></path><g class="markmap-highlight" style=""></g><g data-depth="2" data-path="1.2" class="markmap-node" transform="translate(320, -165.625)" style=""><line stroke="#ff7f0e" stroke-width="1.75" x1="-1" x2="95" y1="20.875" y2="20.875" style=""></line><text x="0" y="12" fill="black" font-weight="bold" font-family="" font-size="">Reliable AI</text></g><g data-depth="2" data-path="1.3" class="markmap-node" transform="translate(320, -138.875)" style=""><line stroke="#2ca02c" stroke-width="1.75" x1="-1" x2="119" y1="20.875" y2="20.875" style=""></line><text x="0" y="12" fill="black" font-weight="bold" font-family="" font-size="">Explainable AI</text></g><g data-depth="3" data-path="1.4.5" class="markmap-node" transform="translate(684, -138.5)" style=""><line stroke="#9467bd" stroke-width="1.375" x1="-1" x2="53" y1="20.6875" y2="20.6875" style=""></line><text x="0" y="12" fill="black" font-weight="bold" font-family="" font-size="">RAG</text></g><g data-depth="3" data-path="1.4.6" class="markmap-node" transform="translate(684, -112.125)" style=""><line stroke="#8c564b" stroke-width="1.375" x1="-1" x2="120" y1="20.6875" y2="20.6875" style=""></line><text x="0" y="12" fill="black" font-weight="bold" font-family="" font-size="">Fact Checking</text></g><g data-depth="3" data-path="1.4.7" class="markmap-node" transform="translate(684, -85.75)" style=""><line stroke="#e377c2" stroke-width="1.375" x1="-1" x2="214" y1="20.6875" y2="20.6875" style=""></line><text x="0" y="12" fill="black" font-weight="bold" font-family="" font-size="">Human-in-the-loop systems</text></g><g data-depth="2" data-path="1.4" class="markmap-node" transform="translate(320, -112.125)" style=""><line stroke="#d62728" stroke-width="1.75" x1="-1" x2="286" y1="20.875" y2="20.875" style=""></line><circle stroke-width="1.5" r="6" stroke="#d62728" fill="var(--markmap-circle-open-bg)" cx="284" cy="20.875" style=""></circle><text x="0" y="12" fill="black" font-weight="bold" font-family="" font-size="">Validation and Verification Techniques</text></g><g data-depth="3" data-path="1.8.9" class="markmap-node" transform="translate(554, -54.375)" style=""><line stroke="#bcbd22" stroke-width="1.375" x1="-1" x2="402" y1="20.6875" y2="20.6875" style=""></line><text x="0" y="12" fill="black" font-weight="bold" font-family="" font-size="">General Performance Assessment on Data Annotation</text></g><g data-depth="3" data-path="1.8.10" class="markmap-node" transform="translate(554, -28)" style=""><line stroke="#17becf" stroke-width="1.375" x1="-1" x2="304" y1="20.6875" y2="20.6875" style=""></line><text x="0" y="12" fill="black" font-weight="bold" font-family="" font-size="">Validation of generated data annotations</text></g><g data-depth="2" data-path="1.8" class="markmap-node" transform="translate(320, -41.1875)" style=""><line stroke="#7f7f7f" stroke-width="1.75" x1="-1" x2="156" y1="20.875" y2="20.875" style=""></line><circle stroke-width="1.5" r="6" stroke="#7f7f7f" fill="var(--markmap-circle-open-bg)" cx="154" cy="20.875" style=""></circle><text x="0" y="12" fill="black" font-weight="bold" font-family="" font-size="">LLM Benchmarking</text></g><g data-depth="3" data-path="1.11.12" class="markmap-node" transform="translate(629, 3.375)" style=""><line stroke="#ff7f0e" stroke-width="1.375" x1="-1" x2="298" y1="20.6875" y2="20.6875" style=""></line><text x="0" y="12" fill="black" font-weight="bold" font-family="" font-size="">Customer Service Chatbots utilize RAG</text></g><g data-depth="2" data-path="1.11" class="markmap-node" transform="translate(320, 3.375)" style=""><line stroke="#1f77b4" stroke-width="1.75" x1="-1" x2="231" y1="20.875" y2="20.875" style=""></line><circle stroke-width="1.5" r="6" stroke="#1f77b4" fill="var(--markmap-circle-open-bg)" cx="229" cy="20.875" style=""></circle><text x="0" y="12" fill="black" font-weight="bold" font-family="" font-size="">Fields to draw inspiration from</text></g><g data-depth="3" data-path="1.13.14" class="markmap-node" transform="translate(504, 35.125)" style=""><line stroke="#d62728" stroke-width="1.375" x1="-1" x2="76" y1="20.6875" y2="20.6875" style=""></line><text x="0" y="12" fill="black" font-weight="bold" font-family="" font-size="">Ragflow</text></g><g data-depth="4" data-path="1.13.15.16" class="markmap-node" transform="translate(811, 61.5)" style=""><line stroke="#8c564b" stroke-width="1.1875" x1="-1" x2="102" y1="20.59375" y2="20.59375" style=""></line><text x="0" y="12" fill="black" font-weight="bold" font-family="" font-size="">Repoformer</text></g><g data-depth="3" data-path="1.13.15" class="markmap-node" transform="translate(504, 61.5)" style=""><line stroke="#9467bd" stroke-width="1.375" x1="-1" x2="229" y1="20.6875" y2="20.6875" style=""></line><circle stroke-width="1.5" r="6" stroke="#9467bd" fill="var(--markmap-circle-open-bg)" cx="227" cy="20.6875" style=""></circle><text x="0" y="12" fill="black" font-weight="bold" font-family="" font-size="">Frameworks in other domains</text></g><g data-depth="3" data-path="1.13.17" class="markmap-node" transform="translate(504, 87.875)" style=""><line stroke="#e377c2" stroke-width="1.375" x1="-1" x2="82" y1="20.6875" y2="20.6875" style=""></line><text x="0" y="12" fill="black" font-weight="bold" font-family="" font-size="">HaluEval</text></g><g data-depth="2" data-path="1.13" class="markmap-node" transform="translate(320, 61.5)" style=""><line stroke="#2ca02c" stroke-width="1.75" x1="-1" x2="106" y1="20.875" y2="20.875" style=""></line><circle stroke-width="1.5" r="6" stroke="#2ca02c" fill="var(--markmap-circle-open-bg)" cx="104" cy="20.875" style=""></circle><text x="0" y="12" fill="black" font-weight="bold" font-family="" font-size="">Frameworks</text></g><g data-depth="3" data-path="1.18.19" class="markmap-node" transform="translate(514, 119.25)" style=""><line stroke="#bcbd22" stroke-width="1.375" x1="-1" x2="62" y1="20.6875" y2="20.6875" style=""></line><text x="0" y="12" fill="black" font-weight="bold" font-family="" font-size="">LlaMa</text></g><g data-depth="3" data-path="1.18.20" class="markmap-node" transform="translate(514, 145.625)" style=""><line stroke="#17becf" stroke-width="1.375" x1="-1" x2="59" y1="20.6875" y2="20.6875" style=""></line><text x="0" y="12" fill="black" font-weight="bold" font-family="" font-size="">FLAN</text></g><g data-depth="3" data-path="1.18.21" class="markmap-node" transform="translate(514, 172)" style=""><line stroke="#1f77b4" stroke-width="1.375" x1="-1" x2="51" y1="20.6875" y2="20.6875" style=""></line><text x="0" y="12" fill="black" font-weight="bold" font-family="" font-size="">GPT</text></g><g data-depth="2" data-path="1.18" class="markmap-node" transform="translate(320, 145.625)" style=""><line stroke="#7f7f7f" stroke-width="1.75" x1="-1" x2="116" y1="20.875" y2="20.875" style=""></line><circle stroke-width="1.5" r="6" stroke="#7f7f7f" fill="var(--markmap-circle-open-bg)" cx="114" cy="20.875" style=""></circle><text x="0" y="12" fill="black" font-weight="bold" font-family="" font-size="">Model Choice</text></g><g data-depth="1" data-path="1" class="markmap-node" transform="translate(0, -10)" style=""><line stroke="#1f77b4" stroke-width="2.5" x1="-1" x2="242" y1="21.25" y2="21.25" style=""></line><circle stroke-width="1.5" r="6" stroke="#1f77b4" fill="var(--markmap-circle-open-bg)" cx="240" cy="21.25" style=""></circle><text x="0" y="12" fill="black" font-weight="bold" font-family="" font-size="">Text Data Annotation with LLMs</text></g></g></svg>